<svg xmlns="http://www.w3.org/2000/svg" xmlns:xlink="http://www.w3.org/1999/xlink" version="1.1" x="0px" y="0px" viewBox="1 -1 100 125" style="enable-background:new 1 -1 100 100;" xml:space="preserve"><path d="M88.6,15.3c-5-5.1-11.7-7.9-19-7.9c-7,0-13.8,2.7-18.6,7.4C46,10,39.4,7.4,32.4,7.4c-7.2,0-13.9,2.8-18.9,7.8  c-5.1,5.1-7.8,11.8-7.8,19c0,7.2,2.8,13.9,7.8,19l37.1,37.2l0.4,0.4l37.6-37.6c5-5,7.8-11.7,7.8-18.9S93.6,20.3,88.6,15.3z"/><text x="1" y="114" fill="#000000" font-size="5px" font-weight="bold" font-family="'Helvetica Neue', Helvetica, Arial-Unicode, Arial, Sans-serif">Created by Jugalbandi</text><text x="1" y="119" fill="#000000" font-size="5px" font-weight="bold" font-family="'Helvetica Neue', Helvetica, Arial-Unicode, Arial, Sans-serif">from the Noun Project</text></svg>