<svg xmlns="http://www.w3.org/2000/svg" xmlns:xlink="http://www.w3.org/1999/xlink" version="1.1" x="0px" y="0px" viewBox="0 0 100 125" style="enable-background:new 0 0 100 100;" xml:space="preserve"><g><path d="M73,8.1c-8.3,0-16.7,3.6-23,9.9C44.4,12.4,37.1,6.8,29.8,6.8S15.2,9.5,9.6,15.1c-11.2,11.2-11.2,29.3,0,40.5L50,93.2   l40.5-37.6c5.6-5.6,8.3-12.9,8.3-20.2S96,20.8,90.4,15.2C85.6,10.2,79.3,8.1,73,8.1z M82.4,47.4L50,77.6L17.5,47.4   c-3.1-3.1-4.9-7.4-4.9-12s1.7-8.9,5-12.2c3.1-3.1,7.6-5,12.2-5c2.1,0,6.3,2,12.2,7.9l8,8.2l8.2-8.2c4.1-4.1,9.7-6.6,14.9-6.6   c3.7,0,6.9,1.3,9.3,3.7c3.1,3.1,5,7.6,5,12.2C87.3,40,85.6,44.1,82.4,47.4z"/></g><text x="0" y="115" fill="#000000" font-size="5px" font-weight="bold" font-family="'Helvetica Neue', Helvetica, Arial-Unicode, Arial, Sans-serif">Created by Fantastic</text><text x="0" y="120" fill="#000000" font-size="5px" font-weight="bold" font-family="'Helvetica Neue', Helvetica, Arial-Unicode, Arial, Sans-serif">from the Noun Project</text></svg>